<?xml version="1.0" encoding="UTF-8"?>
<!-- Generated by Pixelmator Pro 3.7 -->
<svg width="2346" height="2346" viewBox="0 0 2346 2346" xmlns="http://www.w3.org/2000/svg">
    <g id="Group-copy">
        <path id="Path" fill="#912e2e" stroke="none" d="M 531.093994 123.193115 C 466.298584 127.294189 461.377441 136.316162 463.838043 248.682861 L 466.298584 342.185303 L 577.024963 233.919434 L 686.931091 126.473877 L 630.337646 123.193115 C 598.350037 122.373047 554.059509 121.552734 531.093994 123.193115 Z M 498.286224 256.064697"/>
        <path id="path1" fill="#912e2e" stroke="none" d="M 629.517456 233.919434 C 569.643188 293.793701 508.128571 360.229492 491.72467 381.554565 L 462.197632 421.744141 L 462.197632 523.448486 L 462.197632 625.152588 L 595.889404 489.000244 C 758.288086 323.320679 773.871826 299.535156 773.871826 214.234863 C 773.871826 164.202881 770.591003 149.439453 759.108276 138.776855 C 750.906311 130.574951 742.704407 124.833496 740.243774 124.833496 C 738.603394 125.653564 688.571533 174.045166 629.517456 233.919434 Z M 741.884155 183.887451"/>
        <path id="path2" fill="#912e2e" stroke="none" d="M 649.202148 491.460693 C 582.766296 557.896729 513.049744 632.534424 495.005463 657.140259 L 462.197632 700.610474 L 463.017822 800.674316 L 463.017822 899.917969 L 481.062103 875.312134 C 490.904449 861.368774 544.217163 806.415771 599.170227 752.282715 C 710.716736 644.017212 763.20929 578.401367 769.770813 539.852295 C 773.051636 525.908936 773.871826 481.618408 772.231384 442.249023 L 769.770813 370.071899 Z M 490.084259 755.563721"/>
        <path id="path3" fill="#912e2e" stroke="none" d="M 754.187073 650.578613 C 747.625488 660.421021 685.29071 726.036499 615.574158 796.573364 C 546.677734 867.110107 487.623688 932.725708 485.163086 942.568115 C 480.241943 960.612427 482.702545 961.432617 522.071838 961.432617 C 577.024963 961.432617 687.751282 922.883423 737.783203 886.794922 L 775.512207 858.908203 L 774.692017 748.181885 C 773.871826 687.487427 771.411194 636.635376 770.591003 634.994995 C 768.950623 633.354614 761.568909 640.736206 754.187073 650.578613 Z M 575.384583 923.703613"/>
        <path id="path4" fill="#912e2e" stroke="none" d="M 1208.575195 697.329834 L 1171.666382 703.071045 L 1211.035889 723.57605 C 1266.809082 751.462646 1337.345825 831.021484 1375.89502 908.119873 C 1394.759521 945.848877 1423.466309 986.858643 1444.791504 1008.183716 C 1465.296265 1027.048218 1483.340576 1042.631958 1484.160767 1040.991577 C 1485.801147 1039.351074 1493.182983 1014.745239 1500.564575 986.038452 C 1521.889771 903.19873 1505.48584 799.033936 1464.476074 753.923096 C 1430.848022 716.194214 1384.917236 698.150024 1313.560181 694.869263 C 1276.651367 693.228882 1229.080078 694.869263 1208.575195 697.329834 Z M 1389.018188 873.671631"/>
        <path id="path5" fill="#912e2e" stroke="none" d="M 1073.243042 741.620239 C 1055.19873 750.642456 1015.009155 772.78772 983.841797 791.652344 L 926.42804 825.280273 L 972.359009 835.122559 C 1034.693848 847.425415 1061.760254 858.908203 1142.139404 907.299683 C 1206.934814 946.669067 1215.136719 949.129761 1279.932251 953.230591 C 1316.840942 955.691284 1348.008423 954.050781 1348.008423 949.949829 C 1348.008423 946.669067 1334.885254 917.96228 1318.481323 886.794922 C 1284.033203 821.99939 1226.619507 765.405884 1170.026001 739.979858 C 1125.735474 720.295288 1115.893188 720.295288 1073.243042 741.620239 Z M 1293.875488 900.738159"/>
        <path id="path6" fill="#912e2e" stroke="none" d="M 1503.845581 735.058716 C 1503.845581 736.699097 1512.867554 753.923096 1524.350342 774.428101 C 1553.057251 825.280273 1557.978394 887.615112 1540.754272 966.35376 C 1533.372437 1002.442383 1523.530151 1034.430054 1520.24939 1039.351074 C 1516.968628 1043.452148 1512.047363 1056.575195 1509.586792 1068.057983 C 1503.025391 1092.663818 1512.047363 1240.29895 1519.429199 1240.29895 C 1522.709961 1240.29895 1531.732178 1228.816162 1539.934082 1215.693115 C 1547.315796 1201.749756 1576.022705 1165.661255 1603.089111 1135.313965 C 1662.963379 1067.237793 1700.692383 995.880737 1700.692383 949.949829 C 1700.692383 884.334229 1639.177734 810.516724 1535.012817 749.822266 C 1517.788818 739.979858 1503.845581 733.418335 1503.845581 735.058716 Z M 1577.663086 876.952515"/>
        <path id="path7" fill="#912e2e" stroke="none" d="M 332.606812 843.324463 C 274.372955 881.873657 254.688263 928.624756 267.811401 994.240356 C 280.934509 1059.856079 391.660858 1190.26709 467.938995 1229.636353 C 531.914246 1263.264404 581.125977 1264.084595 673.807983 1236.197998 C 746.805298 1213.232544 773.871826 1199.289185 744.344788 1199.289185 C 718.918762 1199.289185 643.460754 1150.077393 589.327881 1098.405151 C 539.295959 1050.833862 450.714905 994.240356 425.288849 994.240356 C 380.998322 994.240356 330.9664 946.669067 330.9664 904.018921 C 330.9664 882.693848 344.909729 882.693848 351.471283 904.018921 C 353.931885 913.041138 363.774231 924.523804 372.796356 928.624756 C 387.559875 936.826782 388.380066 934.366089 388.380066 875.312134 C 388.380066 841.684082 385.919464 813.797363 381.818512 813.797363 C 378.53775 813.797363 356.392487 826.920654 332.606812 843.324463 Z M 400.683014 1143.515869"/>
        <path id="path8" fill="#912e2e" stroke="none" d="M 868.194214 864.649536 C 855.071106 869.570801 823.903687 886.794922 798.477661 902.37854 C 754.187073 931.085449 754.187073 931.90564 773.871826 940.107544 C 785.354553 945.028687 814.881531 962.252808 839.487366 977.836426 C 905.923218 1020.486572 914.125122 1024.587646 964.157104 1035.250244 C 1001.065857 1043.452148 1018.289917 1043.452148 1050.277588 1036.070435 C 1083.905518 1027.048218 1175.767456 981.9375 1175.767456 973.735596 C 1175.767456 972.095093 1157.723145 957.331665 1134.757568 940.927734 C 1095.388306 912.220947 983.021606 868.75061 921.506958 859.728394 C 905.923218 857.267822 882.137512 859.728394 868.194214 864.649536 Z M 1118.35376 969.634521"/>
        <path id="path9" fill="#912e2e" stroke="none" d="M 671.347412 973.735596 C 642.640564 989.319214 555.69989 1010.644287 549.138306 1004.082764 C 546.677734 1001.622192 544.217163 1003.262451 544.217163 1008.183716 C 544.217163 1013.104858 552.419067 1022.947266 563.081665 1029.508789 C 572.92395 1036.890503 601.630798 1061.49646 626.236633 1084.461914 C 683.65033 1136.954346 745.164978 1168.121704 792.736328 1168.121704 C 819.802734 1168.121704 850.149963 1157.459229 914.125122 1124.651367 L 999.425415 1082.001221 L 957.59552 1071.338745 C 934.630066 1065.597412 878.856812 1040.171265 834.566284 1015.56543 C 741.063965 963.893188 706.615784 954.871094 671.347412 973.735596 Z M 618.034729 1031.96936"/>
        <path id="path10" fill="#912e2e" stroke="none" d="M 1722.017334 1037.710693 C 1714.63562 1056.575195 1675.266357 1113.168701 1633.436279 1163.200562 C 1512.867554 1306.734741 1512.867554 1305.914551 1512.867554 1421.562012 C 1512.867554 1478.155518 1516.148438 1519.165283 1520.24939 1519.165283 C 1525.17041 1519.165283 1528.451416 1514.244141 1528.451416 1507.682495 C 1528.451416 1501.120972 1571.921631 1450.268921 1625.234497 1394.495605 C 1739.241577 1273.92688 1766.307861 1227.995972 1766.307861 1152.538086 C 1766.307861 1102.506226 1752.364624 1020.486572 1741.702026 1008.183716 C 1738.421387 1004.902954 1730.21936 1018.026123 1722.017334 1037.710693 Z M 1549.776367 1419.921631"/>
        <path id="path11" fill="#912e2e" stroke="none" d="M 224.341034 1045.092529 C 223.520859 1129.572632 277.653717 1213.232544 354.752075 1246.860474 C 390.840668 1262.444214 397.402222 1264.084595 449.894714 1269.005859 C 478.601532 1272.286499 485.163086 1270.646118 470.399597 1266.545166 C 382.638702 1236.197998 298.97879 1159.099609 254.688263 1068.057983 L 225.16124 1006.543335 L 224.341034 1045.092529 Z"/>
        <path id="path12" fill="#912e2e" stroke="none" d="M 741.063965 1271.466309 C 703.334961 1289.51062 520.431519 1470.773682 487.623688 1522.446045 C 463.017822 1562.63562 462.197632 1565.916504 462.197632 1661.879272 C 462.197632 1761.122803 462.197632 1761.122803 477.781342 1738.157471 C 485.983307 1725.854492 544.217163 1665.160034 606.552002 1602.825195 C 669.70697 1541.310547 733.68219 1473.234375 747.625488 1451.90918 C 773.871826 1413.360107 774.692017 1410.899536 772.231384 1335.441528 L 769.770813 1257.523071 Z M 494.185242 1661.879272"/>
        <path id="path13" fill="#912e2e" stroke="none" d="M 1754.825195 1303.453979 C 1751.544434 1311.656006 1721.197144 1347.744385 1685.928711 1384.65332 C 1612.111084 1460.931396 1564.540039 1517.524902 1533.372437 1565.096191 C 1512.867554 1597.083862 1512.047363 1602.825195 1512.867554 1702.068848 C 1512.867554 1759.482422 1516.148438 1806.233643 1518.609009 1806.233643 C 1521.889771 1806.233643 1537.473389 1783.268066 1553.057251 1755.38147 C 1568.640869 1728.315063 1608.830444 1677.462891 1641.638306 1643.014771 C 1675.266357 1608.56665 1715.455811 1564.276123 1731.859741 1544.591309 L 1762.207031 1508.502808 L 1766.307861 1398.59668 C 1770.408813 1297.712524 1766.307861 1268.185669 1754.825195 1303.453979 Z M 1727.758789 1501.120972"/>
        <path id="path14" fill="#912e2e" stroke="none" d="M 581.125977 1314.116455 C 568.002808 1317.397339 535.195007 1320.678101 509.768921 1321.498291 L 462.197632 1322.318359 L 463.017822 1405.978394 C 463.017822 1487.177734 463.838043 1489.638306 476.140961 1469.953613 C 483.522705 1458.470825 520.431519 1418.28125 558.160461 1380.552246 C 595.889404 1342.003174 626.236633 1310.015503 626.236633 1308.375122 C 626.236633 1305.09436 609.832764 1306.734741 581.125977 1314.116455 Z M 490.904449 1386.293701"/>
        <path id="path15" fill="#912e2e" stroke="none" d="M 754.187073 1506.042236 C 745.985168 1519.165283 690.211853 1578.21936 631.157837 1637.273438 C 571.283569 1697.147705 508.948761 1765.223877 492.544861 1789.829712 L 462.197632 1834.94043 L 462.197632 1931.723511 L 462.197632 2029.32666 L 494.185242 1989.137085 C 511.409332 1967.812012 559.800842 1916.139771 600.810608 1875.950195 C 642.640564 1834.94043 697.593689 1775.066162 723.019653 1741.438232 L 769.770813 1680.743652 L 772.231384 1606.105957 C 773.871826 1565.096191 773.871826 1519.985474 772.231384 1506.862305 L 769.770813 1483.07666 Z M 740.243774 1583.140625"/>
        <path id="path16" fill="#912e2e" stroke="none" d="M 1759.746216 1565.916504 C 1758.926147 1571.657715 1725.298218 1611.0271 1684.28833 1652.857178 C 1525.990601 1818.536499 1496.463745 1927.622437 1577.663086 2050.651855 C 1609.650635 2099.043213 1672.805542 2165.479004 1680.187378 2157.2771 C 1682.647949 2155.636719 1677.726929 2140.873291 1670.345093 2125.289551 C 1659.682495 2104.784668 1655.581543 2077.718262 1655.581543 2026.866089 C 1655.581543 1962.890869 1658.042114 1952.228271 1685.928711 1895.634888 C 1703.152954 1862.827026 1726.118408 1824.277832 1737.601196 1811.154785 C 1765.487793 1778.346924 1767.128052 1768.504639 1764.667603 1654.497559 C 1763.027222 1600.364746 1760.56665 1560.175049 1759.746216 1565.916504 Z M 1585.864868 2010.462158"/>
        <path id="path17" fill="#912e2e" stroke="none" d="M 747.625488 1775.066162 C 734.50238 1791.470093 680.369568 1850.52417 626.236633 1906.297363 C 571.283569 1962.070679 512.229553 2028.50647 495.005463 2055.572998 C 467.118835 2096.582764 462.197632 2109.705811 462.197632 2147.434814 C 462.197632 2181.062744 466.298584 2195.006104 478.601532 2205.668701 C 511.409332 2234.375488 522.071838 2227.813965 627.877075 2119.548096 C 762.389099 1981.755371 775.512207 1955.509155 772.231384 1833.300049 L 769.770813 1745.539063 Z M 719.738953 1970.272583"/>
        <path id="path18" fill="#912e2e" stroke="none" d="M 1744.982788 1870.208862 C 1698.231689 1942.385986 1685.108521 2035.068115 1712.175171 2114.626953 C 1738.421387 2194.185791 1783.531982 2218.791748 1916.403564 2222.892822 C 1979.558594 2225.353271 2012.366455 2223.712891 2012.366455 2217.97168 C 2012.366455 2213.050293 2004.984619 2206.48877 1995.142456 2204.02832 C 1969.716431 2195.826172 1877.034302 2099.863525 1857.349487 2061.314209 C 1847.507324 2043.27002 1834.384155 2008.821777 1828.6427 1985.036133 C 1818.800415 1951.408203 1777.790649 1841.501953 1771.229004 1833.300049 C 1771.229004 1832.479858 1758.926147 1849.703979 1744.982788 1870.208862 Z M 1922.14502 2192.54541"/>
        <path id="path19" fill="#912e2e" stroke="none" d="M 1877.034302 2012.102539 C 1886.056519 2040.809448 1913.122803 2083.459473 1937.72876 2106.425049 C 1972.997192 2140.052979 2039.432861 2181.062744 2067.319336 2186.804199 C 2090.284912 2192.54541 2095.206299 2190.084961 2105.048584 2169.580078 C 2124.733154 2131.851074 2126.373535 2090.02124 2109.969727 2053.112305 C 2093.565918 2015.383301 2088.644531 2013.74292 1983.659668 2008.001587 C 1943.469971 2006.361206 1900.819946 2002.260254 1890.157349 1998.15918 C 1872.93335 1993.238037 1871.292969 1994.05835 1877.034302 2012.102539 Z M 1953.312378 2080.999023"/>
        <path id="path20" fill="#912e2e" stroke="none" d="M 759.928467 2029.32666 C 754.187073 2041.629639 713.177368 2090.02124 667.24646 2136.772217 L 585.226929 2222.07251 L 664.785828 2219.612061 C 773.871826 2214.690674 775.512207 2213.870605 772.231384 2097.402832 C 769.770813 2020.304565 768.130432 2010.462158 759.928467 2029.32666 Z M 698.413818 2191.725342"/>
    </g>
</svg>
